<?xml version="1.0" encoding="utf-8"?>
<!-- Generator: Adobe Illustrator 16.0.3, SVG Export Plug-In . SVG Version: 6.00 Build 0)  -->
<svg version="1.2" baseProfile="tiny" id="Capa_1" xmlns="http://www.w3.org/2000/svg" xmlns:xlink="http://www.w3.org/1999/xlink"
	 x="0px" y="0px" width="1000px" height="1000px" viewBox="0 0 1000 1000" xml:space="preserve">
<g>
	<path fill="none" d="M463,217h-42.56h-2.21H407.3H407 M548.78,217c0.439,0.34,0.87,0.66,1.3,0.97c0.43,0.31,0.86,0.61,1.28,0.88
		c9.72,6.52,18.359,6.53,26.55,0.03c0.01-0.01,0.02-0.01,0.03-0.02c0.39-0.3,0.779-0.62,1.159-0.95c0.011-0.01,0.021-0.02,0.03-0.03
		c0.33-0.28,0.65-0.58,0.97-0.88H548.78z"/>
</g>
<path fill-rule="evenodd" d="M499.87,53.3C360.94,53.48,236.69,117,154.74,217H407.3c2.24-1,5.25-1.71,8.75-0.56
	c0.82,0.26,1.54,0.45,2.18,0.56c0.04,0.01,0.07,0.01,0.1,0.02c0.78,0.11,1.44,0.12,2,0.01c0.04-0.01,0.08-0.02,0.11-0.03
	c2.08-0.49,2.59-2.64,2.54-5.94c-0.06-4.25,0.38-8.53-0.03-12.74c-0.78-7.95,5.3-9.75,10.52-12.15c6.04-2.78,7.15,3.2,9.22,6.22
	c5.6,8.12,12.04,15.51,18.9,22.49c0.75,0.75,1.36,1.12,1.82,2.12h44.1c2.36-2,4.681-4.15,6.96-6.35
	c10.4-10.04,15.87-8.78,27.12,0.58c2.271,1.88,4.57,3.72,6.91,5.52c0.09,0.07,0.19,0.06,0.28,0.13l0.149,0.12
	c0.391,0.3,0.771,0.65,1.15,0.97c0.43,0.37,0.86,0.7,1.28,0.88c0.22,0.1,0.439,0.15,0.659,0.15H577.4c0.17,0,0.34-0.04,0.51-0.12
	c0.01-0.01,0.02-0.01,0.03-0.02c0.39-0.19,0.77-0.55,1.159-0.95c0.011-0.01,0.021-0.02,0.03-0.03c0.28-0.29,0.57-0.6,0.851-0.88
	c0.039-0.04,0.079-0.08,0.119-0.12c0.61-0.57,1.23-1.03,1.841-1.68c6.52-6.91,5-25.57-2.431-33.97c-3.05-3.44-4.46-1.07-5.95,1.05
	c-3.21,4.56-6.229,9.25-9.3,13.91c-2.229,3.38-3.06,8.63-8.95,7.24c-7.029-1.65-15.699,0.03-19.26-9.04
	c-0.359-0.92-0.649-1.86-1.01-2.78c-5.75-14.63-6.271-14.94-21.53-13.16c-8.96,1.05-10.2-0.33-6.939-8.51
	c3.859-9.65,10.449-16.04,20.899-19.06c14.78-4.27,28.75-11.05,43.71-14.95c7.44-1.95,14.69-2.81,22.32-1.06
	c19.56,4.46,39.19,1.03,58.81,0.25c12.301-0.49,22.86,2.06,28.48,15.5c4.3,10.31,18.09,13.7,28.12,7.8
	c5.25-3.09,9.18-3.03,14.21,0.42c107.3,73.55,169.24,174.31,183.07,304.11c1.75,16.37,1.92,32.75,1.409,49.16
	c-0.05,1.81,0.57,4.04-2.3,5.6c-5.479-8.59-7.3-18.65-11.21-27.81c-13.189-30.86-37.149-48.8-68.95-57.06
	c-7.05-1.83-12.13-6.27-17.51-10.52c-6.08-4.81-12.04-9.78-20.55-11.27c5.63,23.48,12.97,30.72,33.7,33.33
	c3.399,0.43,5.16,2.04,6.95,4.58c14.8,20.9,14.529,20.48-5.69,35.82c-10.521,7.97-21.41,15.12-32.92,21.451
	c-5.51,3.039-11.24,5.319-17.62,5.71c-8.81,0.54-14.93-2.761-16.11-11.99c-1.18-9.17-5.71-16.64-10.72-23.99
	c-17.59-25.74-35.11-51.53-52.81-77.19c-2.46-3.55-4.561-6.19,1.779-7.17c2.36-0.36,4.9-0.83,4.761-3.86
	c-0.42-9.15-0.57-18.37-1.86-27.42c-0.58-4.07-4.12-1.46-6.28-0.45c-16.16,7.59-16.12,7.59-27.17-7.09
	c-4.55-6.04-8.87-12.19-11.859-19.2c-2.931-6.88-1.08-11.37,5.25-15.69c14.939-10.21,31.3-10.59,48.22-8.78
	c4.24,0.46,8.46,1.24,12.71,1.43c3.67,0.16,8.25,1.92,9.88-3.59c1.49-5.04-0.25-9.01-4.45-11.97c-7.31-5.16-15.34-8.73-24.14-10.51
	c0.359-5.67,6.03-7.14,8.02-12.16c-6.979-3.37-13.71-4.47-21.04-0.63c-5.22,2.74-10.779,4.83-16.199,7.17
	c-11.25,4.85-20.351,11.12-17.79,25.62c0.819,4.69-2.04,7.02-5.95,8.97c-8.181,4.09-16.681,5.54-25.76,4.83
	c-4.761-0.37-10.051-1.41-12.881,4.45c-1.779,3.69-3.449,1.57-4.92-0.35c-0.6-0.77-1.229-1.65-1.43-2.56
	c-3.47-15.53-13.69-23.63-25.28-30.21l-3.58,21.31c1.771,1.85,4.53,4.31,3.4,6.54c-1.05,2.1-2.92,2.55-4.98,2.55h-0.04
	c-1.6,0-3.31,0-4.819,0.1c-2.21,0.16-4.54,0.59-6.19-1.07c1.641,1.71,3.98,1.36,6.19,1.2c1.52-0.1,3.25-0.15,4.859-0.22l-1.38,7.99
	H460.77c-0.09,0.17-0.19,0.33-0.28,0.49c-8.18,14.21-21.6,15.89-36.23,12.47c-19.52-4.58-21.17-2.96-20.91-12.96H388.2l-13.91,83.19
	c13.46-10.08,22.94-23.25,30.94-38.37c5.84-11.04,13.91-17.78,28.48-15.91c11.35,1.45,22.4-4.15,32.91-8.9
	c12.62-5.71,25.32-8.95,38.95-3.44c5.439,2.2,11.06,0.77,16.52-0.3c5.87-1.16,9.44,0.6,10.68,6.76c0.91,4.5,2.931,8.84,3.36,13.35
	c1.12,11.83,8.54,17.1,19.01,19.45c17.46,3.92,34.9,6.85,51.88-2.14c1.61-0.85,4.16-1.44,5.641-0.76
	c19.13,8.82,40.77,9.23,59.82,19.03c14.84,7.62,23.46,19.62,30.609,33.34c4.07,7.81,7.91,16.13,9.75,24.67
	c7.29,33.97,32.141,57.459,49.76,85.25c3.931,6.19,9.61,1.25,14.44,1.74c4.63,0.46,10.68-4.8,13.45,0.38
	c2.34,4.36-1.141,10.32-4,14.601c-9.66,14.47-19.4,29.01-31.601,41.46c-7.21,7.38-12.229,15.979-18.13,24.17
	c-11.17,15.51-13.1,31.649-8.76,49.29c3.56,14.47-2.61,25.54-11.68,35.739c-5.45,6.12-11.04,12.11-16.5,18.23
	c-8.95,10.05-16.021,20.74-12.57,35.3c1.02,4.34-1.48,7.33-4.89,9.93c-10.41,7.94-19.71,16.61-27.82,27.36
	c-9.01,11.95-24.28,16.55-38.47,20.58c-10.021,2.85-20.7,3.35-31.07,5c-5.18,0.83-8.72-0.41-7.92-6.45
	c3.04-22.85-8.67-41.92-15.91-62.1c-1.27-3.561-3.979-6.84-6.689-9.601c-10.45-10.63-11.87-22.869-7.211-36.39
	c0.971-2.79,1.761-5.7,3.15-8.28c6.65-12.3,8.54-24.609,1.21-37.39c-1.1-1.91-1.649-4.41-1.66-6.65
	c-0.04-13.76-4.939-24.689-17.1-32.06c-3.49-2.12-5.18-6.12-4.95-10.25c0.66-11.92-3.36-23.43-2.979-35.271
	c0.239-7.34-3.171-9.479-9.73-7.869c-3.17,0.79-6.25,1.979-9.36,3.01c-11.859,3.92-15.56,2.49-19.08-9.181
	c-1.73-5.75-5.02-6.59-9.53-5.09c-5.27,1.761-10.48,3.91-15.36,6.54c-13.26,7.13-28.1,8.84-42.27,12.771
	c-3.86,1.069-7.91,0.279-11.25-2.28c-20.05-15.31-40.12-30.41-53.62-52.44L293.12,895.53c61.82,32.55,132.1,51.05,206.49,51.149
	c245.55,0.34,446.78-200.449,447.121-446.14C947.08,254.34,745.92,53,499.87,53.3z M341.76,131.82
	c-22.31,9.72-35.71,29.2-51.39,46.28c-10.71,11.67-20.82,24.19-35.14,31.91c-5.2,2.8-10.59,3.02-15.98,0
	c-2.88-1.62-6.02-2.36-9.46-2.1c-2.41,0.19-5.71,1.47-6.83-1.87c-1.06-3.15,1.08-5.68,3.3-7.7c35.31-32.1,74.82-57.57,119.22-75.26
	c1.06-0.42,2.35-0.25,3.94-0.39C348.2,127.49,345.43,130.22,341.76,131.82z M784.5,686.12c-0.91,15.2-5.11,29.729-9.73,44.07
	c-4.449,13.8-15.579,22.399-26.279,31.109c-4.431,3.61-7.07,1.33-8.78-3.22c-2.1-5.561-1.4-10.96,0.71-16.3
	c3.97-10.05,8.62-19.86,10.03-30.75c0.45-3.42,2.31-6.65,5.31-7.92c12.76-5.46,20.58-15.44,26.11-29.4
	C785.23,678.92,784.71,682.56,784.5,686.12z M152.11,328c-2.99,3-5.96,4.6-8.87,6.86c-3.49,2.71-6.31,6.46-7.85,11.49
	c1.85,0,2.76,0.15,3.63,0.04c2.43-0.33,5.07-3.53,7.13-0.93c2.25,2.83-0.8,5.48-2.24,7.86c-10.51,17.41-20.49,35.2-31.87,52.03
	c-11.5,17-12.36,36.29-14.29,55.42c-0.75,7.45-0.79,14.64-4.34,21.42C95.62,427.33,107.95,376,130.78,328H87.6
	c-22.06,53-34.27,110.88-34.33,171.53c-0.14,119.13,47.08,227.911,123.81,308.26l8.25-49.16c-36.68-44.39-62.94-94.83-78.69-151.439
	c-0.97-3.48-1.89-6.971-2.4-10.53c-0.45-3.04,1.3-4.88,3.95-2.67c19.26,16.14,45.53,22.359,61.26,43.569
	c4.32,5.83,8.85,11.4,11.09,18.41c3.57,11.16,9.76,19.011,17.78,25.011L257.47,328H152.11z"/>
<g>
	<path d="M580.596,222.953l-16.729,99.455H388.212h-5.078l-0.84,5.008l-99.68,594.471H164.054L263.403,329.4l1.172-6.992h-7.09
		H83.851l16.731-99.455H580.596 M587.689,216.953H95.507l-18.75,111.455h180.729L156.964,927.887h130.729l100.52-599.479h180.73
		L587.689,216.953L587.689,216.953z"/>
</g>
</svg>
